<svg width="18" height="16" viewBox="0 0 18 16" fill="none" xmlns="http://www.w3.org/2000/svg">
<path d="M15.536 15.338H1.59496C1.34343 15.3382 1.09789 15.2612 0.891441 15.1175C0.684995 14.9738 0.527568 14.7703 0.440384 14.5343C0.353199 14.2984 0.340448 14.0414 0.40385 13.798C0.467251 13.5546 0.603757 13.3364 0.794965 13.173C1.43114 12.6377 1.94249 11.9696 2.29317 11.2158C2.64385 10.4619 2.82536 9.64045 2.82496 8.809V6.317C2.82496 4.79453 3.42977 3.33441 4.50632 2.25786C5.58287 1.1813 7.04299 0.576504 8.56546 0.576504C10.0879 0.576504 11.5481 1.1813 12.6246 2.25786C13.7012 3.33441 14.306 4.79453 14.306 6.317V8.808C14.3054 9.63805 14.4862 10.4582 14.8356 11.2111C15.1851 11.964 15.6947 12.6315 16.329 13.167C16.522 13.3295 16.6604 13.5474 16.7254 13.7913C16.7904 14.0351 16.7788 14.293 16.6922 14.53C16.6056 14.767 16.4483 14.9717 16.2414 15.1162C16.0346 15.2608 15.7883 15.3382 15.536 15.338ZM8.56496 1.397C7.26051 1.39833 6.00985 1.91711 5.08746 2.8395C4.16507 3.76189 3.64629 5.01254 3.64496 6.317V8.808C3.64587 9.75726 3.43933 10.6952 3.03979 11.5563C2.64026 12.4174 2.05739 13.1808 1.33196 13.793C1.26758 13.8471 1.22136 13.9196 1.19959 14.0008C1.17781 14.082 1.18153 14.168 1.21024 14.247C1.23894 14.326 1.29125 14.3943 1.36007 14.4426C1.42889 14.4909 1.51089 14.5169 1.59496 14.517H15.536C15.6199 14.5172 15.7019 14.4916 15.7709 14.4437C15.8398 14.3959 15.8924 14.328 15.9215 14.2492C15.9506 14.1705 15.9549 14.0847 15.9337 14.0035C15.9125 13.9222 15.8668 13.8495 15.803 13.795C15.0767 13.1826 14.493 12.4189 14.0928 11.5573C13.6926 10.6957 13.4855 9.75702 13.486 8.807V6.317C13.4846 5.01237 12.9657 3.76157 12.0431 2.83915C11.1205 1.91673 9.8696 1.39806 8.56496 1.397Z" fill="#5F6368" stroke="#5E6267" stroke-width="0.5"/>
</svg>
