<svg width="18" height="11" viewBox="0 0 18 11" fill="none" xmlns="http://www.w3.org/2000/svg">
<path d="M17.2121 6.251C17.1813 5.83379 17.1283 5.41853 17.0531 5.007C16.9786 4.58408 16.8763 4.16651 16.7471 3.757C16.6164 3.35165 16.4441 2.9609 16.2331 2.591C16.0251 2.21854 15.764 1.87832 15.4581 1.581C15.1359 1.27782 14.7579 1.04008 14.3451 0.880999C13.8919 0.706427 13.4097 0.619225 12.9241 0.623999C12.6407 0.654577 12.3728 0.768359 12.1541 0.950999C11.9231 1.102 11.6541 1.276 11.3541 1.468C11.0283 1.66291 10.6796 1.81675 10.3161 1.926C9.4915 2.19958 8.60064 2.19958 7.77607 1.926C7.41002 1.81744 7.05897 1.66358 6.73107 1.468C6.43107 1.277 6.16207 1.103 5.93107 0.95C5.71238 0.767256 5.44442 0.65346 5.16107 0.623C4.67535 0.618423 4.19317 0.705968 3.74007 0.880999C3.32687 1.03992 2.94852 1.27767 2.62607 1.581C2.32014 1.87832 2.05907 2.21854 1.85107 2.591C1.638 2.9607 1.46374 3.35144 1.33107 3.757C1.20388 4.16667 1.10366 4.58423 1.03107 5.007C0.95573 5.4185 0.902653 5.83378 0.872068 6.251C0.844068 6.627 0.831068 7.018 0.831068 7.414C0.810868 7.87105 0.88686 8.32726 1.05413 8.75309C1.22139 9.17892 1.4762 9.56488 1.80207 9.886C2.48248 10.5079 3.38106 10.8357 4.30207 10.798H13.7791C14.7001 10.8357 15.5987 10.5079 16.2791 9.886C16.6051 9.5648 16.86 9.17868 17.0273 8.75266C17.1946 8.32664 17.2705 7.87023 17.2501 7.413C17.2501 7.013 17.2361 6.625 17.2101 6.25L17.2121 6.251ZM15.4861 9.051C15.2549 9.25756 14.9851 9.41637 14.6924 9.51832C14.3996 9.62026 14.0895 9.66331 13.7801 9.645H4.30307C3.99359 9.66331 3.68355 9.62026 3.39077 9.51832C3.09799 9.41637 2.82825 9.25756 2.59707 9.051C2.3853 8.83679 2.22129 8.58017 2.1158 8.29802C2.01032 8.01588 1.96577 7.7146 1.98507 7.414C1.98507 7.045 1.99707 6.681 2.02107 6.332C2.04892 5.95635 2.09699 5.58248 2.16507 5.212C2.23065 4.83986 2.3205 4.47241 2.43407 4.112C2.54045 3.78247 2.68053 3.46479 2.85207 3.164C3.00507 2.88912 3.19706 2.63785 3.42207 2.418C3.63688 2.21779 3.88854 2.06123 4.16307 1.957C4.45316 1.84598 4.76049 1.78675 5.07107 1.782C5.11107 1.803 5.18307 1.844 5.30007 1.92C5.53707 2.075 5.81007 2.251 6.11307 2.444C6.52043 2.69146 6.95716 2.88698 7.41307 3.026C8.46841 3.37429 9.60773 3.37429 10.6631 3.026C11.119 2.88659 11.5557 2.69074 11.9631 2.443C12.2721 2.243 12.5381 2.074 12.7751 1.92C12.8921 1.844 12.9631 1.803 13.0041 1.782C13.315 1.78667 13.6226 1.84591 13.9131 1.957C14.1876 2.06129 14.4392 2.21785 14.6541 2.418C14.8792 2.63807 15.0713 2.8897 15.2241 3.165C15.3957 3.46574 15.5358 3.78343 15.6421 4.113C15.7557 4.47339 15.8455 4.84085 15.9111 5.213C15.9811 5.58439 16.0312 5.95926 16.0611 6.336C16.0851 6.684 16.0981 7.048 16.0981 7.418C16.1172 7.71867 16.0725 8.02 15.9669 8.30214C15.8612 8.58429 15.697 8.84087 15.4851 9.055L15.4861 9.051Z" fill="#5F6368"/>
</svg>
